<?xml version="1.0" encoding="UTF-8" standalone="no"?>
<!-- Created with Inkscape (http://www.inkscape.org/) -->

<svg
   xmlns:dc="http://purl.org/dc/elements/1.1/"
   xmlns:cc="http://creativecommons.org/ns#"
   xmlns:rdf="http://www.w3.org/1999/02/22-rdf-syntax-ns#"
   xmlns:svg="http://www.w3.org/2000/svg"
   xmlns="http://www.w3.org/2000/svg"
   xmlns:inkscape="http://www.inkscape.org/namespaces/inkscape"
   version="1.1"
   width="1201.771"
   height="311.12308"
   id="svg2"
   xml:space="preserve"><metadata
     id="metadata8"><rdf:RDF><cc:Work
         rdf:about=""><dc:format>image/svg+xml</dc:format><dc:type
           rdf:resource="http://purl.org/dc/dcmitype/StillImage" /></cc:Work></rdf:RDF></metadata><defs
     id="defs6"><clipPath
       id="clipPath12"><path
         d="m 0,0 1024,0 0,300 L 0,300 0,0 z"
         inkscape:connector-curvature="0"
         id="path14" /></clipPath><clipPath
       id="clipPath22"><path
         d="m 0,0 1024,0 0,300 L 0,300 0,0 z"
         inkscape:connector-curvature="0"
         id="path24" /></clipPath></defs><g
     transform="matrix(1.25,0,0,-1.25,-39.578837,344.487)"
     clip-path="url(#clipPath12)"
     id="g10"><g
       id="g16" /><g
       id="g18"><g
         clip-path="url(#clipPath22)"
         id="g20"><path
           d="m 0,0 1024,0 0,300 L 0,300 0,0 z"
           inkscape:connector-curvature="0"
           id="path26"
           style="fill:#ffffff;fill-opacity:1;fill-rule:nonzero;stroke:none" /><path
           d="M 0,300 1024,300 1024,0 0,0 0,300 z"
           inkscape:connector-curvature="0"
           id="path28"
           style="fill:#ffffff;fill-opacity:1;fill-rule:nonzero;stroke:none" /><g
           transform="matrix(1,0,0,-1,0,300)"
           id="g30"><path
             d="m 42,34 125,0 0,230 -125,0 0,-230 z"
             inkscape:connector-curvature="0"
             id="path32"
             style="fill:none;stroke:#000000;stroke-width:2;stroke-linecap:butt;stroke-linejoin:miter;stroke-miterlimit:4;stroke-opacity:1;stroke-dasharray:none" /></g><g
           transform="matrix(1,0,0,-1,43,265)"
           id="g34"><text
             transform="translate(33.50684,106)"
             id="text36"><tspan
               x="0 25.02 39.389999"
               y="0"
               id="tspan38"
               style="font-size:30px;font-variant:normal;font-weight:normal;writing-mode:lr-tb;fill:#000000;fill-opacity:1;fill-rule:nonzero;stroke:none;font-family:Palatino;-inkscape-font-specification:Palatino-Roman">web</tspan></text>
</g><g
           transform="matrix(1,0,0,-1,43,265)"
           id="g40"><text
             transform="translate(44.77881,146)"
             id="text42"><tspan
               x="0 23.334"
               y="0"
               id="tspan44"
               style="font-size:30px;font-variant:normal;font-weight:normal;writing-mode:lr-tb;fill:#000000;fill-opacity:1;fill-rule:nonzero;stroke:none;font-family:Palatino;-inkscape-font-specification:Palatino-Roman">UI</tspan></text>
</g><g
           transform="matrix(1,0,0,-1,0,300)"
           id="g46"><path
             d="m 263,35 310,0 0,230 -310,0 0,-230 z"
             inkscape:connector-curvature="0"
             id="path48"
             style="fill:none;stroke:#000000;stroke-width:2;stroke-linecap:butt;stroke-linejoin:miter;stroke-miterlimit:4;stroke-opacity:1;stroke-dasharray:none" /></g><g
           transform="matrix(1,0,0,-1,0,300)"
           id="g50"><path
             d="m 672,35 310,0 0,230 -310,0 0,-230 z"
             inkscape:connector-curvature="0"
             id="path52"
             style="fill:none;stroke:#000000;stroke-width:2;stroke-linecap:butt;stroke-linejoin:miter;stroke-miterlimit:4;stroke-opacity:1;stroke-dasharray:none" /></g><g
           transform="matrix(1,0,0,-1,0,300)"
           id="g54"><path
             d="m 693,118 125,0 0,67 -125,0 0,-67 z"
             inkscape:connector-curvature="0"
             id="path56"
             style="fill:none;stroke:#000000;stroke-width:2;stroke-linecap:butt;stroke-linejoin:miter;stroke-miterlimit:4;stroke-opacity:1;stroke-dasharray:none" /></g><g
           transform="matrix(1,0,0,-1,694,181)"
           id="g58"><text
             transform="translate(10.72852,26)"
             id="text60"><tspan
               x="0 8.4759998 20.535999 27.195999 39.296001 49.618 54.618 64.617996 72.517998 80.417999 90.417999"
               y="0"
               id="tspan62"
               style="font-size:20px;font-variant:normal;font-weight:normal;writing-mode:lr-tb;fill:#000000;fill-opacity:1;fill-rule:nonzero;stroke:none;font-family:Palatino;-inkscape-font-specification:Palatino-Roman">sufﬁx array</tspan></text>
</g><g
           transform="matrix(1,0,0,-1,694,181)"
           id="g64"><text
             transform="translate(22.22754,52)"
             id="text66"><tspan
               x="0 9.5799999 19.902 26.426001 34.326 44.326 53.202 59.726002 70.643997"
               y="0"
               id="tspan68"
               style="font-size:20px;font-variant:normal;font-weight:normal;writing-mode:lr-tb;fill:#000000;fill-opacity:1;fill-rule:nonzero;stroke:none;font-family:Palatino;-inkscape-font-specification:Palatino-Roman">extractor</tspan></text>
</g><g
           transform="matrix(1,0,0,-1,0,300)"
           id="g70"><path
             d="m 836,118 125,0 0,67 -125,0 0,-67 z"
             inkscape:connector-curvature="0"
             id="path72"
             style="fill:none;stroke:#000000;stroke-width:2;stroke-linecap:butt;stroke-linejoin:miter;stroke-miterlimit:4;stroke-opacity:1;stroke-dasharray:none" /></g><g
           transform="matrix(1,0,0,-1,837,181)"
           id="g74"><text
             transform="translate(44.46387,26)"
             id="text76"><tspan
               x="0 8.1440001 18.143999 25.927999"
               y="0"
               id="tspan78"
               style="font-size:20px;font-style:italic;font-variant:normal;writing-mode:lr-tb;fill:#000000;fill-opacity:1;fill-rule:nonzero;stroke:none;font-family:Palatino;-inkscape-font-specification:Palatino-Italic">cdec</tspan></text>
</g><g
           transform="matrix(1,0,0,-1,837,181)"
           id="g80"><text
             transform="translate(25.85547,52)"
             id="text82"><tspan
               x="0 12.216 21.796 30.672001 41.59 53.806 63.386002"
               y="0"
               id="tspan84"
               style="font-size:20px;font-variant:normal;font-weight:normal;writing-mode:lr-tb;fill:#000000;fill-opacity:1;fill-rule:nonzero;stroke:none;font-family:Palatino;-inkscape-font-specification:Palatino-Roman">decoder</tspan></text>
</g><g
           transform="matrix(1,0,0,-1,0,300)"
           id="g86"><path
             d="m 428,116 125,0 0,67 -125,0 0,-67 z"
             inkscape:connector-curvature="0"
             id="path88"
             style="fill:none;stroke:#000000;stroke-width:2;stroke-linecap:butt;stroke-linejoin:miter;stroke-miterlimit:4;stroke-opacity:1;stroke-dasharray:none" /></g><g
           transform="matrix(1,0,0,-1,429,183)"
           id="g90"><text
             transform="translate(36.11914,26)"
             id="text92"><tspan
               x="0 15.556 25.212 37.428001"
               y="0"
               id="tspan94"
               style="font-size:20px;font-style:italic;font-variant:normal;writing-mode:lr-tb;fill:#000000;fill-opacity:1;fill-rule:nonzero;stroke:none;font-family:Palatino;-inkscape-font-specification:Palatino-Italic">NLTK</tspan></text>
</g><g
           transform="matrix(1,0,0,-1,429,183)"
           id="g96"><text
             transform="translate(19.95703,52)"
             id="text98"><tspan
               x="0 6.5240002 17.441999 28.566 38.146 49.785999 55.605999 65.606003 75.185997"
               y="0"
               id="tspan100"
               style="font-size:20px;font-variant:normal;font-weight:normal;writing-mode:lr-tb;fill:#000000;fill-opacity:1;fill-rule:nonzero;stroke:none;font-family:Palatino;-inkscape-font-specification:Palatino-Roman">tokenizer</tspan></text>
</g><g
           transform="matrix(1,0,0,-1,184.6035,265.5)"
           id="g102"><text
             transform="translate(4.5,24)"
             id="text104"><tspan
               x="0 16.639999 28.896 41.152"
               y="0"
               id="tspan106"
               style="font-size:20px;font-variant:normal;font-weight:normal;writing-mode:lr-tb;fill:#000000;fill-opacity:1;fill-rule:nonzero;stroke:none;font-family:Palatino;-inkscape-font-specification:Palatino-Roman">HTTP</tspan></text>
</g><g
           transform="matrix(1,0,0,-1,0,300)"
           id="g108"><path
             d="m 183,80 55.6785,0 1.5,0"
             inkscape:connector-curvature="0"
             id="path110"
             style="fill:none;stroke:#000000;stroke-width:3;stroke-linecap:butt;stroke-linejoin:miter;stroke-miterlimit:4;stroke-opacity:1;stroke-dasharray:none" /></g><path
           d="m 235.3785,213.4 13.2,6.6 -13.2,6.6 3.3,-6.6 -3.3,-6.6 z"
           inkscape:connector-curvature="0"
           id="path112"
           style="fill:#000000;fill-opacity:1;fill-rule:nonzero;stroke:none" /><g
           transform="matrix(1,0,0,-1,592.9668,266)"
           id="g114"><text
             transform="translate(4.5,24)"
             id="text116"><tspan
               x="0 16.66 35.576"
               y="0"
               id="tspan118"
               style="font-size:20px;font-variant:normal;font-weight:normal;writing-mode:lr-tb;fill:#000000;fill-opacity:1;fill-rule:nonzero;stroke:none;font-family:Palatino;-inkscape-font-specification:Palatino-Roman">ØMQ</tspan></text>
</g><g
           transform="matrix(1,0,0,-1,307.7949,264)"
           id="g120"><text
             transform="translate(4.5,24)"
             id="text122"><tspan
               x="0 8.4759998 19.393999 31.454 39.001999 47.877998 57.458 62.458 68.982002 78.561996 88.884003"
               y="0"
               id="tspan124"
               style="font-size:20px;font-variant:normal;font-weight:normal;writing-mode:lr-tb;fill:#000000;fill-opacity:1;fill-rule:nonzero;stroke:none;font-family:Palatino;-inkscape-font-specification:Palatino-Roman">source text</tspan></text>
</g><g
           transform="matrix(1,0,0,-1,445.2432,264)"
           id="g126"><text
             transform="translate(4.5,24)"
             id="text128"><tspan
               x="0 6.5240002 17.441999 28.566 33.566002 38.566002 47.042 56.622002 68.262001 74.786003 84.365997 96.005997 104.882"
               y="0"
               id="tspan130"
               style="font-size:20px;font-variant:normal;font-weight:normal;writing-mode:lr-tb;fill:#000000;fill-opacity:1;fill-rule:nonzero;stroke:none;font-family:Palatino;-inkscape-font-specification:Palatino-Roman">tok. sentence</tspan></text>
</g><g
           transform="matrix(1,0,0,-1,794.0322,254)"
           id="g132"><text
             transform="translate(4.5,24)"
             id="text134"><tspan
               x="0 11.124 19.024 29.024 46.68 64.335999 74.335999"
               y="0"
               id="tspan136"
               style="font-size:20px;font-variant:normal;font-weight:normal;writing-mode:lr-tb;fill:#000000;fill-opacity:1;fill-rule:nonzero;stroke:none;font-family:Palatino;-inkscape-font-specification:Palatino-Roman">grammar</tspan></text>
</g><g
           transform="matrix(1,0,0,-1,0,300)"
           id="g138"><path
             d="m 283,116 125,0 0,67 -125,0 0,-67 z"
             inkscape:connector-curvature="0"
             id="path140"
             style="fill:none;stroke:#000000;stroke-width:2;stroke-linecap:butt;stroke-linejoin:miter;stroke-miterlimit:4;stroke-opacity:1;stroke-dasharray:none" /></g><g
           transform="matrix(1,0,0,-1,284,183)"
           id="g142"><text
             transform="translate(43.28223,26)"
             id="text144"><tspan
               x="0 10.898 19.775999 27.554001"
               y="0"
               id="tspan146"
               style="font-size:20px;font-style:italic;font-variant:normal;writing-mode:lr-tb;fill:#000000;fill-opacity:1;fill-rule:nonzero;stroke:none;font-family:Palatino;-inkscape-font-specification:Palatino-Italic">ﬂask</tspan></text>
</g><g
           transform="matrix(1,0,0,-1,284,183)"
           id="g148"><text
             transform="translate(12.96973,52)"
             id="text150"><tspan
               x="0 16.68 26.26 37.324001 42.324001 50.799999 60.380001 68.279999 79.578003 89.157997"
               y="0"
               id="tspan152"
               style="font-size:20px;font-variant:normal;font-weight:normal;writing-mode:lr-tb;fill:#000000;fill-opacity:1;fill-rule:nonzero;stroke:none;font-family:Palatino;-inkscape-font-specification:Palatino-Roman">web server</tspan></text>
</g><g
           transform="matrix(1,0,0,-1,0,300)"
           id="g154"><path
             d="m 342.1887,96.51443 -0.6806,-1.33671 C 331.7783,78.27292 322.87,79.44681 287.9999,79.79007 l -1.5,0.0081"
             inkscape:connector-curvature="0"
             id="path156"
             style="fill:none;stroke:#000000;stroke-width:3;stroke-linecap:butt;stroke-linejoin:miter;stroke-miterlimit:4;stroke-opacity:1;stroke-dasharray:none" /></g><path
           d="M 334.1293,204.7684 346,196 l -0.1077,14.7577 -4.3842,-5.9354 -7.3788,-0.0539 z"
           inkscape:connector-curvature="0"
           id="path158"
           style="fill:#000000;fill-opacity:1;fill-rule:nonzero;stroke:none" /><path
           d="m 286.4099,216.3122 c -2.1363,-2.1594 -5.6187,-2.1781 -7.7781,-0.0418 -2.1594,2.1363 -2.1781,5.6186 -0.0418,7.778 2.1363,2.1595 5.6186,2.1782 7.778,0.0419 2.1594,-2.1363 2.1782,-5.6187 0.0419,-7.7781"
           inkscape:connector-curvature="0"
           id="path160"
           style="fill:#000000;fill-opacity:1;fill-rule:nonzero;stroke:none" /><g
           transform="matrix(1,0,0,-1,0,300)"
           id="g162"><path
             d="m 589,80 55.6785,0 1.5,0"
             inkscape:connector-curvature="0"
             id="path164"
             style="fill:none;stroke:#000000;stroke-width:3;stroke-linecap:butt;stroke-linejoin:miter;stroke-miterlimit:4;stroke-opacity:1;stroke-dasharray:none" /></g><path
           d="m 641.3785,213.4 13.2,6.6 -13.2,6.6 3.3,-6.6 -3.3,-6.6 z"
           inkscape:connector-curvature="0"
           id="path166"
           style="fill:#000000;fill-opacity:1;fill-rule:nonzero;stroke:none" /><g
           transform="matrix(1,0,0,-1,0,300)"
           id="g168"><path
             d="m 899,197.7422 c 0,34.8556 -135.6815,26.3565 -196.1041,27.3363 l -1.4994,0.0432"
             inkscape:connector-curvature="0"
             id="path170"
             style="fill:none;stroke:#000000;stroke-width:3;stroke-linecap:butt;stroke-linejoin:miter;stroke-miterlimit:4;stroke-opacity:1;stroke-dasharray:none" /></g><path
           d="m 706.0048,81.61362 -13.0047,-6.97681 13.3842,-6.21774 -3.4884,6.50239 3.1089,6.69216 z"
           inkscape:connector-curvature="0"
           id="path172"
           style="fill:#000000;fill-opacity:1;fill-rule:nonzero;stroke:none" /><g
           transform="matrix(1,0,0,-1,0,300)"
           id="g174"><path
             d="m 248.5785,225 -55.6785,0 -1.5,0"
             inkscape:connector-curvature="0"
             id="path176"
             style="fill:none;stroke:#000000;stroke-width:3;stroke-linecap:butt;stroke-linejoin:miter;stroke-miterlimit:4;stroke-opacity:1;stroke-dasharray:none" /></g><path
           d="M 196.2,81.60001 183,75 196.2,68.40001 192.9,75 l 3.3,6.60001 z"
           inkscape:connector-curvature="0"
           id="path178"
           style="fill:#000000;fill-opacity:1;fill-rule:nonzero;stroke:none" /><g
           transform="matrix(1,0,0,-1,0,300)"
           id="g180"><path
             d="m 654.5785,225 -55.6785,0 -1.5,0"
             inkscape:connector-curvature="0"
             id="path182"
             style="fill:none;stroke:#000000;stroke-width:3;stroke-linecap:butt;stroke-linejoin:miter;stroke-miterlimit:4;stroke-opacity:1;stroke-dasharray:none" /></g><path
           d="M 602.2,81.60001 589,75 602.2,68.40001 598.9,75 l 3.3,6.60001 z"
           inkscape:connector-curvature="0"
           id="path184"
           style="fill:#000000;fill-opacity:1;fill-rule:nonzero;stroke:none" /><g
           transform="matrix(1,0,0,-1,0,300)"
           id="g186"><path
             d="m 283,207 268,0 0,38 -268,0 0,-38 z"
             inkscape:connector-curvature="0"
             id="path188"
             style="fill:none;stroke:#000000;stroke-width:2;stroke-linecap:butt;stroke-linejoin:miter;stroke-miterlimit:4;stroke-opacity:1;stroke-dasharray:none" /></g><g
           transform="matrix(1,0,0,-1,284,92)"
           id="g190"><text
             transform="translate(38.51758,25)"
             id="text192"><tspan
               x="0 12.216 21.796 28.32 39.237999 50.362 59.942001 71.582001 77.402 87.402 96.982002 104.882 109.882 122.002 127.002 134.55 144.13 153.006 163.006 171.48199 181.062"
               y="0"
               id="tspan194"
               style="font-size:20px;font-variant:normal;font-weight:normal;writing-mode:lr-tb;fill:#000000;fill-opacity:1;fill-rule:nonzero;stroke:none;font-family:Palatino;-inkscape-font-specification:Palatino-Roman">detokenizer + recaser</tspan></text>
</g><g
           transform="matrix(1,0,0,-1,0,300)"
           id="g196"><path
             d="m 479,104.366 c 12.2527,-26.33252 18.0354,-24.57498 59.1001,-24.19945 l 1.5,0.0074"
             inkscape:connector-curvature="0"
             id="path198"
             style="fill:none;stroke:#000000;stroke-width:3;stroke-linecap:butt;stroke-linejoin:miter;stroke-miterlimit:4;stroke-opacity:1;stroke-dasharray:none" /></g><path
           d="m 534.7676,213.2498 13.2324,6.5349 -13.1674,6.6649 3.2675,-6.6161 -3.3325,-6.5837 z"
           inkscape:connector-curvature="0"
           id="path200"
           style="fill:#000000;fill-opacity:1;fill-rule:nonzero;stroke:none" /><g
           transform="matrix(1,0,0,-1,0,300)"
           id="g202"><path
             d="m 754.1888,96.88036 -0.6805,-1.33672 C 743.7792,78.63884 734.8719,79.81284 700,80.1561 l -1.5002,0.0081"
             inkscape:connector-curvature="0"
             id="path204"
             style="fill:none;stroke:#000000;stroke-width:3;stroke-linecap:butt;stroke-linejoin:miter;stroke-miterlimit:4;stroke-opacity:1;stroke-dasharray:none" /></g><path
           d="M 746.1295,204.4027 758,195.634 l -0.1074,14.7576 -4.3843,-5.9352 -7.3788,-0.0537 z"
           inkscape:connector-curvature="0"
           id="path206"
           style="fill:#000000;fill-opacity:1;fill-rule:nonzero;stroke:none" /><path
           d="m 698.4099,215.9462 c -2.1363,-2.1594 -5.6187,-2.1781 -7.7781,-0.0418 -2.1594,2.1362 -2.1782,5.6186 -0.0419,7.778 2.1363,2.1594 5.6187,2.1782 7.7781,0.0419 2.1594,-2.1363 2.1781,-5.6187 0.0419,-7.7781"
           inkscape:connector-curvature="0"
           id="path208"
           style="fill:#000000;fill-opacity:1;fill-rule:nonzero;stroke:none" /><g
           transform="matrix(1,0,0,-1,775.3281,74)"
           id="g210"><text
             transform="translate(4.5,24)"
             id="text212"><tspan
               x="0 6.5240002 14.424 24.424 36.063999 44.540001 50.360001 60.360001 66.884003 76.463997 88.68 93.68 102.156 111.736 123.376 129.89999 139.48 151.12 159.996"
               y="0"
               id="tspan214"
               style="font-size:20px;font-variant:normal;font-weight:normal;writing-mode:lr-tb;fill:#000000;fill-opacity:1;fill-rule:nonzero;stroke:none;font-family:Palatino;-inkscape-font-specification:Palatino-Roman">translated sentence</tspan></text>
</g><g
           transform="matrix(1,0,0,-1,0,300)"
           id="g216"><path
             d="m 355,104.2312 c 31.3772,-28.87863 83.4252,-21.39508 105.1865,-5.19916 l 1.0653,1.05556"
             inkscape:connector-curvature="0"
             id="path218"
             style="fill:none;stroke:#000000;stroke-width:3;stroke-linecap:butt;stroke-linejoin:miter;stroke-miterlimit:4;stroke-opacity:1;stroke-dasharray:none" /></g><path
           d="M 453.1967,198.6026 467.2188,194 l -4.7312,13.9791 -2.3013,-7.011 -6.9896,-2.3655 z"
           inkscape:connector-curvature="0"
           id="path220"
           style="fill:#000000;fill-opacity:1;fill-rule:nonzero;stroke:none" /><g
           transform="matrix(1,0,0,-1,0,300)"
           id="g222"><path
             d="m 767,104.5133 c 31.3772,-28.87861 83.4252,-21.39501 105.1865,-5.19911 l 1.0653,1.05561"
             inkscape:connector-curvature="0"
             id="path224"
             style="fill:none;stroke:#000000;stroke-width:3;stroke-linecap:butt;stroke-linejoin:miter;stroke-miterlimit:4;stroke-opacity:1;stroke-dasharray:none" /></g><path
           d="m 865.1968,198.3204 14.022,-4.6025 -4.7312,13.9791 -2.3013,-7.011 -6.9895,-2.3656 z"
           inkscape:connector-curvature="0"
           id="path226"
           style="fill:#000000;fill-opacity:1;fill-rule:nonzero;stroke:none" /></g></g></g></svg>