<?xml version="1.0" encoding="UTF-8" standalone="no"?>
<!DOCTYPE svg PUBLIC "-//W3C//DTD SVG 1.1//EN"
 "http://www.w3.org/Graphics/SVG/1.1/DTD/svg11.dtd">
<!-- Generated by graphviz version 2.28.0 (20111028.1807)
 -->
<!-- Title: lattice Pages: 1 -->
<svg width="592pt" height="166pt"
 viewBox="0.00 0.00 592.00 165.80" xmlns="http://www.w3.org/2000/svg" xmlns:xlink="http://www.w3.org/1999/xlink">
<g id="graph1" class="graph" transform="scale(1 1) rotate(0) translate(4 161.8)">
<title>lattice</title>
<polygon fill="white" stroke="white" points="-4,5 -4,-161.8 589,-161.8 589,5 -4,5"/>
<!-- 0 -->
<g id="node1" class="node"><title>0</title>
<ellipse fill="none" stroke="black" cx="18" cy="-53" rx="18" ry="18"/>
<text text-anchor="middle" x="18" y="-47.4" font-family="Times,serif" font-size="14.00">0</text>
</g>
<!-- 1 -->
<g id="node3" class="node"><title>1</title>
<ellipse fill="none" stroke="black" cx="113" cy="-106" rx="18" ry="18"/>
<text text-anchor="middle" x="113" y="-100.4" font-family="Times,serif" font-size="14.00">1</text>
</g>
<!-- 0&#45;&gt;1 -->
<g id="edge2" class="edge"><title>0&#45;&gt;1</title>
<path fill="none" stroke="black" d="M33.9421,-61.5154C48.5852,-69.8604 71.1337,-82.7106 88.2377,-92.458"/>
<polygon fill="black" stroke="black" points="86.6739,-95.5953 97.095,-97.5058 90.1398,-89.5135 86.6739,-95.5953"/>
<text text-anchor="middle" x="63" y="-85.8" font-family="Times,serif" font-size="14.00">ton</text>
</g>
<!-- 2 -->
<g id="node5" class="node"><title>2</title>
<ellipse fill="none" stroke="black" cx="250" cy="-76" rx="18" ry="18"/>
<text text-anchor="middle" x="250" y="-70.4" font-family="Times,serif" font-size="14.00">2</text>
</g>
<!-- 0&#45;&gt;2 -->
<g id="edge4" class="edge"><title>0&#45;&gt;2</title>
<path fill="none" stroke="black" d="M36.0718,-54.1112C58.8746,-55.6483 100.522,-58.6404 136,-62.2 165.369,-65.1467 198.93,-69.352 221.796,-72.3445"/>
<polygon fill="black" stroke="black" points="221.424,-75.8256 231.796,-73.6652 222.34,-68.8859 221.424,-75.8256"/>
<text text-anchor="middle" x="113" y="-65.8" font-family="Times,serif" font-size="14.00">tonband</text>
</g>
<!-- 4 -->
<g id="node7" class="node"><title>4</title>
<ellipse fill="none" stroke="black" cx="562" cy="-67" rx="18" ry="18"/>
<ellipse fill="none" stroke="black" cx="562" cy="-67" rx="22" ry="22"/>
<text text-anchor="middle" x="562" y="-61.4" font-family="Times,serif" font-size="14.00">4</text>
</g>
<!-- 0&#45;&gt;4 -->
<g id="edge6" class="edge"><title>0&#45;&gt;4</title>
<path fill="none" stroke="black" d="M31.2722,-40.4397C47.9611,-24.7669 79.4785,-0 112,-0 112,-0 112,-0 447,-0 482.985,-0 517.643,-25.1194 539.107,-44.5968"/>
<polygon fill="black" stroke="black" points="536.717,-47.1532 546.397,-51.4604 541.516,-42.0569 536.717,-47.1532"/>
<text text-anchor="middle" x="250" y="-2.8" font-family="Times,serif" font-size="14.00">tonbandaufnahme</text>
</g>
<!-- 1&#45;&gt;2 -->
<g id="edge8" class="edge"><title>1&#45;&gt;2</title>
<path fill="none" stroke="black" d="M130.825,-102.261C153.663,-97.186 194.74,-88.0579 221.94,-82.0134"/>
<polygon fill="black" stroke="black" points="222.96,-85.372 231.963,-79.786 221.442,-78.5387 222.96,-85.372"/>
<text text-anchor="middle" x="168" y="-99.8" font-family="Times,serif" font-size="14.00">band</text>
</g>
<!-- 1&#45;&gt;4 -->
<g id="edge10" class="edge"><title>1&#45;&gt;4</title>
<path fill="none" stroke="black" d="M130.549,-111.488C137.681,-113.608 146.168,-115.807 154,-117 294.655,-138.434 334.484,-153.903 474,-126 496.662,-121.468 502.797,-118.86 522,-106 528.345,-101.751 534.522,-96.3642 540.019,-90.9613"/>
<polygon fill="black" stroke="black" points="542.614,-93.3121 547.046,-83.6888 537.581,-88.4479 542.614,-93.3121"/>
<text text-anchor="middle" x="359" y="-143.8" font-family="Times,serif" font-size="14.00">bandaufnahme</text>
</g>
<!-- 2&#45;&gt;4 -->
<g id="edge14" class="edge"><title>2&#45;&gt;4</title>
<path fill="none" stroke="black" d="M267.761,-72.5905C304.87,-65.4478 396.798,-49.9883 474,-55.2 492.588,-56.4548 513.259,-59.2013 529.786,-61.729"/>
<polygon fill="black" stroke="black" points="529.561,-65.2368 539.985,-63.3406 530.654,-58.3226 529.561,-65.2368"/>
<text text-anchor="middle" x="446" y="-58.8" font-family="Times,serif" font-size="14.00">aufnahme</text>
</g>
<!-- 3 -->
<g id="node11" class="node"><title>3</title>
<ellipse fill="none" stroke="black" cx="446" cy="-99" rx="18" ry="18"/>
<text text-anchor="middle" x="446" y="-93.4" font-family="Times,serif" font-size="14.00">3</text>
</g>
<!-- 2&#45;&gt;3 -->
<g id="edge12" class="edge"><title>2&#45;&gt;3</title>
<path fill="none" stroke="black" d="M268.216,-78.0411C302.096,-82.0578 377.641,-91.0142 418.137,-95.8153"/>
<polygon fill="black" stroke="black" points="417.757,-99.2946 428.099,-96.9963 418.581,-92.3432 417.757,-99.2946"/>
<text text-anchor="middle" x="359" y="-96.8" font-family="Times,serif" font-size="14.00">aufn</text>
</g>
<!-- 3&#45;&gt;4 -->
<g id="edge16" class="edge"><title>3&#45;&gt;4</title>
<path fill="none" stroke="black" d="M463.821,-94.2783C481.386,-89.3479 509.307,-81.5104 530.723,-75.4989"/>
<polygon fill="black" stroke="black" points="531.958,-78.7876 540.64,-72.7152 530.066,-72.0481 531.958,-78.7876"/>
<text text-anchor="middle" x="507" y="-88.8" font-family="Times,serif" font-size="14.00">ahme</text>
</g>
</g>
</svg>
