<?xml version="1.0" encoding="UTF-8" standalone="no"?>
<!-- Created with Inkscape (http://www.inkscape.org/) -->

<svg
   xmlns:dc="http://purl.org/dc/elements/1.1/"
   xmlns:cc="http://creativecommons.org/ns#"
   xmlns:rdf="http://www.w3.org/1999/02/22-rdf-syntax-ns#"
   xmlns:svg="http://www.w3.org/2000/svg"
   xmlns="http://www.w3.org/2000/svg"
   xmlns:inkscape="http://www.inkscape.org/namespaces/inkscape"
   version="1.1"
   width="1017.5"
   height="496.88977"
   id="svg2"
   xml:space="preserve"><metadata
     id="metadata8"><rdf:RDF><cc:Work
         rdf:about=""><dc:format>image/svg+xml</dc:format><dc:type
           rdf:resource="http://purl.org/dc/dcmitype/StillImage" /></cc:Work></rdf:RDF></metadata><defs
     id="defs6"><clipPath
       id="clipPath12"><path
         d="M 0,0 814,0 814,476 0,476 0,0 z"
         inkscape:connector-curvature="0"
         id="path14" /></clipPath><clipPath
       id="clipPath22"><path
         d="M 0,0 814,0 814,476 0,476 0,0 z"
         inkscape:connector-curvature="0"
         id="path24" /></clipPath><clipPath
       id="clipPath104"><path
         d="M 3,0 813,0 813,476 3,476 3,0 z"
         inkscape:connector-curvature="0"
         id="path106" /></clipPath></defs><g
     transform="matrix(1.25,0,0,-1.25,0,595)"
     clip-path="url(#clipPath12)"
     id="g10"><g
       id="g16" /><g
       id="g18"><g
         clip-path="url(#clipPath22)"
         id="g20"><path
           d="M 0,0 814,0 814,476 0,476 0,0 z"
           inkscape:connector-curvature="0"
           id="path26"
           style="fill:#000000;fill-opacity:0;fill-rule:nonzero;stroke:none" /><g
           transform="matrix(1,0,0,-1,7,180.5)"
           id="g28"><text
             transform="translate(4.5,23)"
             id="text30"><tspan
               x="0 20"
               y="0"
               id="tspan32"
               style="font-size:20px;font-variant:normal;writing-mode:lr-tb;fill:#008743;fill-opacity:1;fill-rule:nonzero;stroke:none;font-family:HiraKakuProN;-inkscape-font-specification:HiraKakuProN-W3">澳洲</tspan></text>
</g><g
           transform="matrix(1,0,0,-1,154,107.5)"
           id="g34"><text
             transform="translate(4.5,22)"
             id="text36"><tspan
               x="0"
               y="0"
               id="tspan38"
               style="font-size:20px;font-variant:normal;writing-mode:lr-tb;fill:#008743;fill-opacity:1;fill-rule:nonzero;stroke:none;font-family:HiraKakuProN;-inkscape-font-specification:HiraKakuProN-W3">与</tspan></text>
</g><g
           transform="matrix(1,0,0,-1,89.5,180.5)"
           id="g40"><text
             transform="translate(4.5,22)"
             id="text42"><tspan
               x="0"
               y="0"
               id="tspan44"
               style="font-size:20px;font-variant:normal;writing-mode:lr-tb;fill:#008743;fill-opacity:1;fill-rule:nonzero;stroke:none;font-family:HiraKakuProN;-inkscape-font-specification:HiraKakuProN-W3">是</tspan></text>
</g><g
           transform="matrix(1,0,0,-1,216.5,107.5)"
           id="g46"><text
             transform="translate(4.5,22)"
             id="text48"><tspan
               x="0"
               y="0"
               id="tspan50"
               style="font-size:20px;font-variant:normal;writing-mode:lr-tb;fill:#008743;fill-opacity:1;fill-rule:nonzero;stroke:none;font-family:HiraKakuProN;-inkscape-font-specification:HiraKakuProN-W3">北</tspan></text>
</g><g
           transform="matrix(1,0,0,-1,216.5,107.5)"
           id="g52"><text
             transform="translate(24.5,22)"
             id="text54"><tspan
               x="0"
               y="0"
               id="tspan56"
               style="font-size:20px;font-variant:normal;font-weight:300;writing-mode:lr-tb;fill:#008743;fill-opacity:1;fill-rule:nonzero;stroke:none;font-family:STHeitiSC;-inkscape-font-specification:STHeitiSC-Light"></tspan></text>
</g><g
           transform="matrix(1,0,0,-1,301.5,180.5)"
           id="g58"><text
             transform="translate(4.5,22)"
             id="text60"><tspan
               x="0"
               y="0"
               id="tspan62"
               style="font-size:20px;font-variant:normal;writing-mode:lr-tb;fill:#008743;fill-opacity:1;fill-rule:nonzero;stroke:none;font-family:HiraKakuProN;-inkscape-font-specification:HiraKakuProN-W3">有</tspan></text>
</g><g
           transform="matrix(1,0,0,-1,362.5,180.5)"
           id="g64"><text
             transform="translate(4.5,22)"
             id="text66"><tspan
               x="0 20"
               y="0"
               id="tspan68"
               style="font-size:20px;font-variant:normal;writing-mode:lr-tb;fill:#008743;fill-opacity:1;fill-rule:nonzero;stroke:none;font-family:HiraKakuProN;-inkscape-font-specification:HiraKakuProN-W3">邦交</tspan></text>
</g><g
           transform="matrix(1,0,0,-1,449.5,254.5)"
           id="g70"><text
             transform="translate(4.5,22)"
             id="text72"><tspan
               x="0"
               y="0"
               id="tspan74"
               style="font-size:20px;font-variant:normal;writing-mode:lr-tb;fill:#008743;fill-opacity:1;fill-rule:nonzero;stroke:none;font-family:HiraKakuProN;-inkscape-font-specification:HiraKakuProN-W3">的</tspan></text>
</g><g
           transform="matrix(1,0,0,-1,513.5,180.5)"
           id="g76"><text
             transform="translate(4.5,22)"
             id="text78"><tspan
               x="0 20"
               y="0"
               id="tspan80"
               style="font-size:20px;font-variant:normal;writing-mode:lr-tb;fill:#008743;fill-opacity:1;fill-rule:nonzero;stroke:none;font-family:HiraKakuProN;-inkscape-font-specification:HiraKakuProN-W3">少数</tspan></text>
</g><g
           transform="matrix(1,0,0,-1,604.5,180.5)"
           id="g82"><text
             transform="translate(4.5,22)"
             id="text84"><tspan
               x="0 20"
               y="0"
               id="tspan86"
               style="font-size:20px;font-variant:normal;writing-mode:lr-tb;fill:#008743;fill-opacity:1;fill-rule:nonzero;stroke:none;font-family:HiraKakuProN;-inkscape-font-specification:HiraKakuProN-W3">国家</tspan></text>
</g><g
           transform="matrix(1,0,0,-1,689.5,254.5)"
           id="g88"><text
             transform="translate(4.5,22)"
             id="text90"><tspan
               x="0 20"
               y="0"
               id="tspan92"
               style="font-size:20px;font-variant:normal;writing-mode:lr-tb;fill:#008743;fill-opacity:1;fill-rule:nonzero;stroke:none;font-family:HiraKakuProN;-inkscape-font-specification:HiraKakuProN-W3">之一</tspan></text>
</g><g
           transform="matrix(1,0,0,-1,777.5,327.5)"
           id="g94"><text
             transform="translate(4.5,22)"
             id="text96"><tspan
               x="0"
               y="0"
               id="tspan98"
               style="font-size:20px;font-variant:normal;writing-mode:lr-tb;fill:#008743;fill-opacity:1;fill-rule:nonzero;stroke:none;font-family:HiraKakuProN;-inkscape-font-specification:HiraKakuProN-W3">。</tspan></text>
</g></g></g><g
       id="g100"><g
         clip-path="url(#clipPath104)"
         id="g102"><g
           transform="matrix(2.368421,0,0,2.368159,3,0)"
           id="g108"><text
             transform="matrix(1,0,0,-1,222.998,189.985)"
             id="text110"><tspan
               x="0"
               y="0"
               id="tspan112"
               style="font-size:12px;font-variant:normal;font-weight:bold;writing-mode:lr-tb;fill:#004080;fill-opacity:1;fill-rule:nonzero;stroke:none;font-family:Helvetica;-inkscape-font-specification:Helvetica-Bold">S</tspan></text>
</g><g
           transform="matrix(2.368421,0,0,2.368159,3,0)"
           id="g114"><text
             transform="matrix(1,0,0,-1,117.7484,158.9854)"
             id="text116"><tspan
               x="0"
               y="0"
               id="tspan118"
               style="font-size:12px;font-variant:normal;font-weight:bold;writing-mode:lr-tb;fill:#004080;fill-opacity:1;fill-rule:nonzero;stroke:none;font-family:Helvetica;-inkscape-font-specification:Helvetica-Bold">S</tspan></text>
</g><g
           transform="matrix(2.368421,0,0,2.368159,3,0)"
           id="g120"><text
             transform="matrix(1,0,0,-1,22.99883,127.9858)"
             id="text122"><tspan
               x="0"
               y="0"
               id="tspan124"
               style="font-size:12px;font-variant:normal;font-weight:bold;writing-mode:lr-tb;fill:#004080;fill-opacity:1;fill-rule:nonzero;stroke:none;font-family:Helvetica;-inkscape-font-specification:Helvetica-Bold">S</tspan></text>
</g><g
           transform="matrix(2.368421,0,0,2.368159,3,0)"
           id="g126"><text
             transform="matrix(1,0,0,-1,23.49923,96.98622)"
             id="text128"><tspan
               x="0"
               y="0"
               id="tspan130"
               style="font-size:12px;font-variant:normal;font-weight:bold;writing-mode:lr-tb;fill:#004080;fill-opacity:1;fill-rule:nonzero;stroke:none;font-family:Helvetica;-inkscape-font-specification:Helvetica-Bold">X</tspan></text>
</g><g
           transform="matrix(2.368421,0,0,2.368159,3,0)"
           id="g132"><path
             d="M 27.5,92 11.5,77 M 27.5,92 43,77 M 27.5,123 28,108"
             inkscape:connector-curvature="0"
             id="path134"
             style="fill:none;stroke:#004040;stroke-width:1;stroke-linecap:butt;stroke-linejoin:round;stroke-miterlimit:10;stroke-opacity:1;stroke-dasharray:none" /></g><g
           transform="matrix(2.368421,0,0,2.368159,3,0)"
           id="g136"><text
             transform="matrix(1,0,0,-1,212.998,127.985)"
             id="text138"><tspan
               x="0"
               y="0"
               id="tspan140"
               style="font-size:12px;font-variant:normal;font-weight:bold;writing-mode:lr-tb;fill:#004080;fill-opacity:1;fill-rule:nonzero;stroke:none;font-family:Helvetica;-inkscape-font-specification:Helvetica-Bold">X</tspan></text>
</g><g
           transform="matrix(2.368421,0,0,2.368159,3,0)"
           id="g142"><text
             transform="matrix(1,0,0,-1,122.1232,96.98541)"
             id="text144"><tspan
               x="0"
               y="0"
               id="tspan146"
               style="font-size:12px;font-variant:normal;font-weight:bold;writing-mode:lr-tb;fill:#004080;fill-opacity:1;fill-rule:nonzero;stroke:none;font-family:Helvetica;-inkscape-font-specification:Helvetica-Bold">X</tspan></text>
</g><g
           transform="matrix(2.368421,0,0,2.368159,3,0)"
           id="g148"><text
             transform="matrix(1,0,0,-1,79.95642,65.98582)"
             id="text150"><tspan
               x="0"
               y="0"
               id="tspan152"
               style="font-size:12px;font-variant:normal;font-weight:bold;writing-mode:lr-tb;fill:#004080;fill-opacity:1;fill-rule:nonzero;stroke:none;font-family:Helvetica;-inkscape-font-specification:Helvetica-Bold">X</tspan></text>
</g><g
           transform="matrix(2.368421,0,0,2.368159,3,0)"
           id="g154"><path
             d="m 83.958,61 -15.5,-15 m 15.5,15 16.00001,-15 M 126.125,92 84.12501,77 m 41.99999,15 5.5,-15 m -5.5,15 37,-15"
             inkscape:connector-curvature="0"
             id="path156"
             style="fill:none;stroke:#004040;stroke-width:1;stroke-linecap:butt;stroke-linejoin:round;stroke-miterlimit:10;stroke-opacity:1;stroke-dasharray:none" /></g><g
           transform="matrix(2.368421,0,0,2.368159,3,0)"
           id="g158"><text
             transform="matrix(1,0,0,-1,241.123,96.98501)"
             id="text160"><tspan
               x="0"
               y="0"
               id="tspan162"
               style="font-size:12px;font-variant:normal;font-weight:bold;writing-mode:lr-tb;fill:#004080;fill-opacity:1;fill-rule:nonzero;stroke:none;font-family:Helvetica;-inkscape-font-specification:Helvetica-Bold">X</tspan></text>
</g><g
           transform="matrix(2.368421,0,0,2.368159,3,0)"
           id="g164"><path
             d="m 245.125,92 -19,-15 m 19,15 19,-15 M 217,123 126,108 m 91,15 -22.5,-15 m 22.5,15 28,-15 m -28,15 85,-15 m -179.75,46 -95,-15 m 95,15 94.5,-15"
             inkscape:connector-curvature="0"
             id="path166"
             style="fill:none;stroke:#004040;stroke-width:1;stroke-linecap:butt;stroke-linejoin:round;stroke-miterlimit:10;stroke-opacity:1;stroke-dasharray:none" /></g><g
           transform="matrix(2.368421,0,0,2.368159,3,0)"
           id="g168"><text
             transform="matrix(1,0,0,-1,328.748,158.985)"
             id="text170"><tspan
               x="0"
               y="0"
               id="tspan172"
               style="font-size:12px;font-variant:normal;font-weight:bold;writing-mode:lr-tb;fill:#004080;fill-opacity:1;fill-rule:nonzero;stroke:none;font-family:Helvetica;-inkscape-font-specification:Helvetica-Bold">X</tspan></text>
</g><g
           transform="matrix(2.368421,0,0,2.368159,3,0)"
           id="g174"><path
             d="m 332.75,154 0.5,-15 m -105.75,46 -105,-15 m 105,15 105.5,-15"
             inkscape:connector-curvature="0"
             id="path176"
             style="fill:none;stroke:#004040;stroke-width:1;stroke-linecap:butt;stroke-linejoin:round;stroke-miterlimit:10;stroke-opacity:1;stroke-dasharray:none" /></g></g></g></g></svg>
