<?xml version="1.0" encoding="UTF-8" standalone="no"?>
<!-- Created with Inkscape (http://www.inkscape.org/) -->

<svg
   xmlns:dc="http://purl.org/dc/elements/1.1/"
   xmlns:cc="http://creativecommons.org/ns#"
   xmlns:rdf="http://www.w3.org/1999/02/22-rdf-syntax-ns#"
   xmlns:svg="http://www.w3.org/2000/svg"
   xmlns="http://www.w3.org/2000/svg"
   xmlns:inkscape="http://www.inkscape.org/namespaces/inkscape"
   version="1.1"
   width="686.55908"
   height="183.81374"
   id="svg2"
   xml:space="preserve"><metadata
     id="metadata8"><rdf:RDF><cc:Work
         rdf:about=""><dc:format>image/svg+xml</dc:format><dc:type
           rdf:resource="http://purl.org/dc/dcmitype/StillImage" /></cc:Work></rdf:RDF></metadata><defs
     id="defs6"><clipPath
       id="clipPath12"><path
         d="M 0,0 664,0 664,201 0,201 0,0 z"
         inkscape:connector-curvature="0"
         id="path14" /></clipPath><clipPath
       id="clipPath22"><path
         d="M 0,0 664,0 664,201 0,201 0,0 z"
         inkscape:connector-curvature="0"
         id="path24" /></clipPath></defs><g
     transform="matrix(1.25,0,0,-1.25,-38.534413,251.25)"
     clip-path="url(#clipPath12)"
     id="g10"><g
       id="g16" /><g
       id="g18"><g
         clip-path="url(#clipPath22)"
         id="g20"><text
           transform="matrix(1,0,0,-1,354.9981,188.985)"
           id="text26"><tspan
             x="0"
             y="0"
             id="tspan28"
             style="font-size:12px;font-variant:normal;font-weight:bold;writing-mode:lr-tb;fill:#004080;fill-opacity:1;fill-rule:nonzero;stroke:none;font-family:Helvetica;-inkscape-font-specification:Helvetica-Bold">S</tspan></text>
<text
           transform="matrix(1,0,0,-1,141.7485,162.9846)"
           id="text30"><tspan
             x="0"
             y="0"
             id="tspan32"
             style="font-size:12px;font-variant:normal;font-weight:bold;writing-mode:lr-tb;fill:#004080;fill-opacity:1;fill-rule:nonzero;stroke:none;font-family:Helvetica;-inkscape-font-specification:Helvetica-Bold">S</tspan></text>
<text
           transform="matrix(1,0,0,-1,71.9985,136.9842)"
           id="text34"><tspan
             x="0"
             y="0"
             id="tspan36"
             style="font-size:12px;font-variant:normal;font-weight:bold;writing-mode:lr-tb;fill:#004080;fill-opacity:1;fill-rule:nonzero;stroke:none;font-family:Helvetica;-inkscape-font-specification:Helvetica-Bold">S</tspan></text>
<text
           transform="matrix(1,0,0,-1,71.4981,110.9838)"
           id="text38"><tspan
             x="0"
             y="0"
             id="tspan40"
             style="font-size:12px;font-variant:normal;font-weight:bold;writing-mode:lr-tb;fill:#004080;fill-opacity:1;fill-rule:nonzero;stroke:none;font-family:Helvetica;-inkscape-font-specification:Helvetica-Bold">X</tspan></text>
<text
           transform="matrix(1,0,0,-1,33.8217,85.0194)"
           id="text42"><tspan
             x="0 6.6719999 13.344 19.344 22.68 26.676001 33.348 36.012001 38.675999 57.335999 60"
             y="0"
             id="tspan44"
             style="font-size:12px;font-variant:normal;font-weight:normal;writing-mode:lr-tb;fill:#008040;fill-opacity:1;fill-rule:nonzero;stroke:none;font-family:Helvetica;-inkscape-font-specification:Helvetica">australiais</tspan></text>
<path
           d="M 76,107 57,95 m 19,12 20,-12 m -20,38 0,-12"
           inkscape:connector-curvature="0"
           id="path46"
           style="fill:none;stroke:#004040;stroke-width:1;stroke-linecap:butt;stroke-linejoin:round;stroke-miterlimit:10;stroke-opacity:1;stroke-dasharray:none" /><text
           transform="matrix(1,0,0,-1,211.998,136.985)"
           id="text48"><tspan
             x="0"
             y="0"
             id="tspan50"
             style="font-size:12px;font-variant:normal;font-weight:bold;writing-mode:lr-tb;fill:#004080;fill-opacity:1;fill-rule:nonzero;stroke:none;font-family:Helvetica;-inkscape-font-specification:Helvetica-Bold">X</tspan></text>
<text
           transform="matrix(1,0,0,-1,112.7892,111.0206)"
           id="text52"><tspan
             x="0 6.6719999 13.344 33.001202 39.673199 56.664001 60 66.671997"
             y="0"
             id="tspan54"
             style="font-size:12px;font-variant:normal;font-weight:normal;writing-mode:lr-tb;fill:#008040;fill-opacity:1;fill-rule:nonzero;stroke:none;font-family:Helvetica;-inkscape-font-specification:Helvetica">oneofthe</tspan></text>
<text
           transform="matrix(1,0,0,-1,227.7984,110.9846)"
           id="text56"><tspan
             x="0"
             y="0"
             id="tspan58"
             style="font-size:12px;font-variant:normal;font-weight:bold;writing-mode:lr-tb;fill:#004080;fill-opacity:1;fill-rule:nonzero;stroke:none;font-family:Helvetica;-inkscape-font-specification:Helvetica-Bold">X</tspan></text>
<text
           transform="matrix(1,0,0,-1,199.2132,85.0202)"
           id="text60"><tspan
             x="0 3.336 10.008 30.9888 36.9888 43.660801 50.332802 57.004799 60.340801 64.3368 67.000801 73.672798"
             y="0"
             id="tspan62"
             style="font-size:12px;font-variant:normal;font-weight:normal;writing-mode:lr-tb;fill:#008040;fill-opacity:1;fill-rule:nonzero;stroke:none;font-family:Helvetica;-inkscape-font-specification:Helvetica">fewcountries</tspan></text>
<path
           d="M 232,107 209,95 m 23,12 23,-12"
           inkscape:connector-curvature="0"
           id="path64"
           style="fill:none;stroke:#004040;stroke-width:1;stroke-linecap:butt;stroke-linejoin:round;stroke-miterlimit:10;stroke-opacity:1;stroke-dasharray:none" /><text
           transform="matrix(1,0,0,-1,390.798,110.985)"
           id="text66"><tspan
             x="0"
             y="0"
             id="tspan68"
             style="font-size:12px;font-variant:normal;font-weight:bold;writing-mode:lr-tb;fill:#004080;fill-opacity:1;fill-rule:nonzero;stroke:none;font-family:Helvetica;-inkscape-font-specification:Helvetica-Bold">X</tspan></text>
<text
           transform="matrix(1,0,0,-1,291.0396,85.0206)"
           id="text70"><tspan
             x="0 6.6719999 13.344 19.344 37.993198 44.665199 47.329201 54.001202 56.665199 63.3372 73.333199 80.005203 83.341202 86.005203 103.3152 107.3112 113.9832 116.6472 123.3192 126.6552 129.3192 135.9912 142.66319"
             y="0"
             id="tspan72"
             style="font-size:12px;font-variant:normal;font-weight:normal;writing-mode:lr-tb;fill:#008040;fill-opacity:1;fill-rule:nonzero;stroke:none;font-family:Helvetica;-inkscape-font-specification:Helvetica">havediplomaticrelations</tspan></text>
<text
           transform="matrix(1,0,0,-1,496.0488,84.9846)"
           id="text74"><tspan
             x="0"
             y="0"
             id="tspan76"
             style="font-size:12px;font-variant:normal;font-weight:bold;writing-mode:lr-tb;fill:#004080;fill-opacity:1;fill-rule:nonzero;stroke:none;font-family:Helvetica;-inkscape-font-specification:Helvetica-Bold">X</tspan></text>
<text
           transform="matrix(1,0,0,-1,451.7136,59.0202)"
           id="text78"><tspan
             x="0 8.6639996 11.328 14.664 33.990002 40.661999 47.334 51.330002 54.666 73.653603 79.653603 86.3256 90.321602 96.993599"
             y="0"
             id="tspan80"
             style="font-size:12px;font-variant:normal;font-weight:normal;writing-mode:lr-tb;fill:#008040;fill-opacity:1;fill-rule:nonzero;stroke:none;font-family:Helvetica;-inkscape-font-specification:Helvetica">withnorthkorea</tspan></text>
<path
           d="m 500.5,81 -38,-12 m 38,12 -1,-12 m 1,12 40,-12 M 395,107 304.5,95 M 395,107 356.5,95 m 38.5,12 22,-12 m -22,12 105,-12 m -284,38 -92.5,-12 m 92.5,12 -64.5,-12 m 64.5,12 -38,-12 m 38,12 16,-12 m -16,12 179,-12 M 146,159 76,147 m 70,12 70,-12"
           inkscape:connector-curvature="0"
           id="path82"
           style="fill:none;stroke:#004040;stroke-width:1;stroke-linecap:butt;stroke-linejoin:round;stroke-miterlimit:10;stroke-opacity:1;stroke-dasharray:none" /><text
           transform="matrix(1,0,0,-1,567.748,162.985)"
           id="text84"><tspan
             x="0"
             y="0"
             id="tspan86"
             style="font-size:12px;font-variant:normal;font-weight:bold;writing-mode:lr-tb;fill:#004080;fill-opacity:1;fill-rule:nonzero;stroke:none;font-family:Helvetica;-inkscape-font-specification:Helvetica-Bold">X</tspan></text>
<text
           transform="matrix(1,0,0,-1,570.0832,137.0206)"
           id="text88"><tspan
             x="0"
             y="0"
             id="tspan90"
             style="font-size:12px;font-variant:normal;font-weight:normal;writing-mode:lr-tb;fill:#008040;fill-opacity:1;fill-rule:nonzero;stroke:none;font-family:Helvetica;-inkscape-font-specification:Helvetica">.</tspan></text>
<path
           d="m 572,159 0.5,-12 M 359,185 146,173 m 213,12 213,-12"
           inkscape:connector-curvature="0"
           id="path92"
           style="fill:none;stroke:#004040;stroke-width:1;stroke-linecap:butt;stroke-linejoin:round;stroke-miterlimit:10;stroke-opacity:1;stroke-dasharray:none" /></g></g></g></svg>
